<svg width="198" height="198" viewBox="0 0 198 198" fill="none" xmlns="http://www.w3.org/2000/svg">
<path d="M98.9797 0H98.53C44.1134 0 0 44.1264 0 98.559V99.0089C0 153.441 44.1134 197.568 98.53 197.568H98.9797C153.396 197.568 197.51 153.441 197.51 99.0089V98.559C197.51 44.1264 153.396 0 98.9797 0Z" fill="url(#paint0_linear_1_360)"/>
<path d="M129.316 40.1947H68.2008C51.3167 40.1947 37.5811 53.9344 37.5811 70.8235V126.751C37.5811 143.64 51.3167 157.38 68.2008 157.38H129.316C146.2 157.38 159.936 143.64 159.936 126.751V70.8235C159.936 53.9344 146.2 40.1947 129.316 40.1947ZM48.3828 70.8235C48.3828 59.894 57.2746 50.9996 68.2008 50.9996H129.316C140.242 50.9996 149.134 59.894 149.134 70.8235V126.751C149.134 137.681 140.242 146.575 129.316 146.575H68.2008C57.2746 146.575 48.3828 137.681 48.3828 126.751V70.8235Z" fill="white"/>
<path d="M98.7585 127.27C114.459 127.27 127.24 114.493 127.24 98.7805C127.24 83.0681 114.466 70.2905 98.7585 70.2905C83.0507 70.2905 70.2769 83.0681 70.2769 98.7805C70.2769 114.493 83.0507 127.27 98.7585 127.27ZM98.7585 81.1023C108.508 81.1023 116.438 89.0347 116.438 98.7874C116.438 108.54 108.508 116.473 98.7585 116.473C89.0086 116.473 81.0786 108.54 81.0786 98.7874C81.0786 89.0347 89.0086 81.1023 98.7585 81.1023Z" fill="white"/>
<path d="M129.876 74.8935C134.104 74.8935 137.55 71.4534 137.55 67.2173C137.55 62.9811 134.111 59.541 129.876 59.541C125.642 59.541 122.203 62.9811 122.203 67.2173C122.203 71.4534 125.642 74.8935 129.876 74.8935Z" fill="white"/>
<defs>
<linearGradient id="paint0_linear_1_360" x1="28.8552" y1="168.704" x2="168.696" y2="28.9118" gradientUnits="userSpaceOnUse">
<stop stop-color="#FAAD4F"/>
<stop offset="0.35" stop-color="#DD2A7B"/>
<stop offset="0.62" stop-color="#9537B0"/>
<stop offset="1" stop-color="#515BD4"/>
</linearGradient>
</defs>
</svg>
