<svg width="197" height="197" viewBox="0 0 197 197" fill="none" xmlns="http://www.w3.org/2000/svg">
<path d="M196.949 98.5036C196.949 44.1016 152.861 0 98.4746 0C44.0886 0 0 44.1016 0 98.5036C0 152.906 44.0886 197.007 98.4746 197.007C152.861 197.007 196.949 152.906 196.949 98.5036Z" fill="#FF0209"/>
<path d="M140.277 142.131C137.343 142.45 134.34 142.505 131.461 142.498C109.007 142.478 86.552 142.457 64.1044 142.443C57.0394 142.443 49.3447 142.215 43.885 137.722C37.7334 132.649 36.4532 123.851 35.955 115.891C35.2631 104.982 35.2077 94.0391 35.7751 83.1234C36.0865 77.1292 36.6331 70.9896 39.2142 65.5629C41.0687 61.666 44.1618 58.1636 48.1199 56.3224C52.7215 54.1835 57.5376 54.5642 62.4921 54.5573C74.3526 54.5435 86.213 54.5366 98.0734 54.5227C110.404 54.5089 122.742 54.5019 135.073 54.4881C140.9 54.4881 147.155 54.6058 151.909 57.9767C158.047 62.3235 159.714 70.595 160.482 78.0775C161.901 91.8587 161.922 105.785 160.538 119.567C159.963 125.249 159.008 131.257 155.265 135.57C151.556 139.847 146.055 141.495 140.284 142.125L140.277 142.131Z" fill="white"/>
<path d="M118.556 98.5036L85.092 79.178V117.829L118.556 98.5036Z" fill="#FF0209"/>
</svg>
