<svg width="210" height="54" viewBox="0 0 210 54" fill="none" xmlns="http://www.w3.org/2000/svg">
<g filter="url(#filter0_ddiii_1202_6311)">
<rect x="3" width="48" height="48" rx="12" fill="#252B37"/>
<rect x="4" y="1" width="46" height="46" rx="11" stroke="url(#paint0_linear_1202_6311)" stroke-width="2"/>
<path d="M36.8351 22.7146L36.8351 35.5717L22.6808 39.7321L16 35.875L30.1543 31.7143L30.1543 18.8574L36.8351 22.7146Z" fill="url(#paint1_linear_1202_6311)"/>
<path d="M16 24.8743L16 12.0172L30.3192 7.99979L37 11.8569L22.6808 15.8746L22.6808 28.7314L16 24.8743Z" fill="url(#paint2_linear_1202_6311)"/>
</g>
<g opacity="0.84">
<path d="M71.506 35.476C69.67 35.476 68.0493 35.1473 66.644 34.49C65.2387 33.8327 64.1393 32.892 63.346 31.668C62.5527 30.444 62.156 28.9707 62.156 27.248V26.296H66.576V27.248C66.576 28.676 67.018 29.7527 67.902 30.478C68.786 31.1807 69.9873 31.532 71.506 31.532C73.0473 31.532 74.192 31.226 74.94 30.614C75.7107 30.002 76.096 29.22 76.096 28.268C76.096 27.6107 75.9033 27.078 75.518 26.67C75.1553 26.262 74.6113 25.9333 73.886 25.684C73.1833 25.412 72.322 25.1627 71.302 24.936L70.52 24.766C68.888 24.4033 67.4827 23.95 66.304 23.406C65.148 22.8393 64.2527 22.1027 63.618 21.196C63.006 20.2893 62.7 19.1107 62.7 17.66C62.7 16.2093 63.04 14.974 63.72 13.954C64.4227 12.9113 65.3973 12.118 66.644 11.574C67.9133 11.0073 69.398 10.724 71.098 10.724C72.798 10.724 74.3053 11.0187 75.62 11.608C76.9573 12.1747 78 13.036 78.748 14.192C79.5187 15.3253 79.904 16.7533 79.904 18.476V19.496H75.484V18.476C75.484 17.5693 75.3027 16.844 74.94 16.3C74.6 15.7333 74.1013 15.3253 73.444 15.076C72.7867 14.804 72.0047 14.668 71.098 14.668C69.738 14.668 68.7293 14.9287 68.072 15.45C67.4373 15.9487 67.12 16.64 67.12 17.524C67.12 18.1133 67.2673 18.612 67.562 19.02C67.8793 19.428 68.344 19.768 68.956 20.04C69.568 20.312 70.35 20.55 71.302 20.754L72.084 20.924C73.784 21.2867 75.2573 21.7513 76.504 22.318C77.7733 22.8847 78.7593 23.6327 79.462 24.562C80.1647 25.4913 80.516 26.6813 80.516 28.132C80.516 29.5827 80.142 30.8633 79.394 31.974C78.6687 33.062 77.626 33.9233 76.266 34.558C74.9287 35.17 73.342 35.476 71.506 35.476ZM82.6391 35V11.2H86.9231V20.21H87.5351C87.7165 19.8473 87.9998 19.4847 88.3851 19.122C88.7705 18.7593 89.2805 18.4647 89.9151 18.238C90.5725 17.9887 91.3998 17.864 92.3971 17.864C93.7118 17.864 94.8565 18.17 95.8311 18.782C96.8285 19.3713 97.5991 20.1987 98.1431 21.264C98.6871 22.3067 98.9591 23.5307 98.9591 24.936V35H94.6751V25.276C94.6751 24.0067 94.3578 23.0547 93.7231 22.42C93.1111 21.7853 92.2271 21.468 91.0711 21.468C89.7565 21.468 88.7365 21.91 88.0111 22.794C87.2858 23.6553 86.9231 24.868 86.9231 26.432V35H82.6391ZM107.466 35.476C106.265 35.476 105.188 35.272 104.236 34.864C103.284 34.4333 102.525 33.8213 101.958 33.028C101.414 32.212 101.142 31.226 101.142 30.07C101.142 28.914 101.414 27.9507 101.958 27.18C102.525 26.3867 103.296 25.7973 104.27 25.412C105.268 25.004 106.401 24.8 107.67 24.8H112.294V23.848C112.294 23.0547 112.045 22.4087 111.546 21.91C111.048 21.3887 110.254 21.128 109.166 21.128C108.101 21.128 107.308 21.3773 106.786 21.876C106.265 22.352 105.925 22.9753 105.766 23.746L101.822 22.42C102.094 21.5587 102.525 20.7767 103.114 20.074C103.726 19.3487 104.531 18.7707 105.528 18.34C106.548 17.8867 107.784 17.66 109.234 17.66C111.456 17.66 113.212 18.2153 114.504 19.326C115.796 20.4367 116.442 22.046 116.442 24.154V30.444C116.442 31.124 116.76 31.464 117.394 31.464H118.754V35H115.898C115.06 35 114.368 34.796 113.824 34.388C113.28 33.98 113.008 33.436 113.008 32.756V32.722H112.362C112.272 32.994 112.068 33.3567 111.75 33.81C111.433 34.2407 110.934 34.626 110.254 34.966C109.574 35.306 108.645 35.476 107.466 35.476ZM108.214 32.008C109.416 32.008 110.39 31.6793 111.138 31.022C111.909 30.342 112.294 29.4467 112.294 28.336V27.996H107.976C107.183 27.996 106.56 28.166 106.106 28.506C105.653 28.846 105.426 29.322 105.426 29.934C105.426 30.546 105.664 31.0447 106.14 31.43C106.616 31.8153 107.308 32.008 108.214 32.008ZM126.995 35.476C125.657 35.476 124.399 35.1473 123.221 34.49C122.065 33.81 121.135 32.824 120.433 31.532C119.73 30.24 119.379 28.676 119.379 26.84V26.296C119.379 24.46 119.73 22.896 120.433 21.604C121.135 20.312 122.065 19.3373 123.221 18.68C124.377 18 125.635 17.66 126.995 17.66C128.015 17.66 128.865 17.7847 129.545 18.034C130.247 18.2607 130.814 18.5553 131.245 18.918C131.675 19.2807 132.004 19.666 132.231 20.074H132.843V11.2H137.127V35H132.911V32.96H132.299C131.913 33.5947 131.313 34.1727 130.497 34.694C129.703 35.2153 128.536 35.476 126.995 35.476ZM128.287 31.736C129.601 31.736 130.701 31.3167 131.585 30.478C132.469 29.6167 132.911 28.37 132.911 26.738V26.398C132.911 24.766 132.469 23.5307 131.585 22.692C130.723 21.8307 129.624 21.4 128.287 21.4C126.972 21.4 125.873 21.8307 124.989 22.692C124.105 23.5307 123.663 24.766 123.663 26.398V26.738C123.663 28.37 124.105 29.6167 124.989 30.478C125.873 31.3167 126.972 31.736 128.287 31.736ZM141.876 35L139.496 18.136H143.746L145.242 32.11H145.854L148.03 18.136H154.898L157.074 32.11H157.686L159.182 18.136H163.432L161.052 35H153.946L151.77 21.026H151.158L148.982 35H141.876ZM181.115 35.476C179.166 35.476 177.488 35.1247 176.083 34.422C174.7 33.6967 173.635 32.6767 172.887 31.362C172.162 30.0247 171.799 28.4493 171.799 26.636V11.2H176.287V26.772C176.287 28.2227 176.695 29.3673 177.511 30.206C178.35 31.0447 179.551 31.464 181.115 31.464C182.679 31.464 183.869 31.0447 184.685 30.206C185.524 29.3673 185.943 28.2227 185.943 26.772V11.2H190.431V26.636C190.431 28.4493 190.057 30.0247 189.309 31.362C188.584 32.6767 187.518 33.6967 186.113 34.422C184.73 35.1247 183.064 35.476 181.115 35.476ZM193.419 35V11.2H197.907V35H193.419Z" fill="white"/>
</g>
<defs>
<filter id="filter0_ddiii_1202_6311" x="0" y="-3" width="54" height="57" filterUnits="userSpaceOnUse" color-interpolation-filters="sRGB">
<feFlood flood-opacity="0" result="BackgroundImageFix"/>
<feColorMatrix in="SourceAlpha" type="matrix" values="0 0 0 0 0 0 0 0 0 0 0 0 0 0 0 0 0 0 127 0" result="hardAlpha"/>
<feOffset dy="1"/>
<feGaussianBlur stdDeviation="0.5"/>
<feComposite in2="hardAlpha" operator="out"/>
<feColorMatrix type="matrix" values="0 0 0 0 0.162923 0 0 0 0 0.162923 0 0 0 0 0.162923 0 0 0 0.08 0"/>
<feBlend mode="normal" in2="BackgroundImageFix" result="effect1_dropShadow_1202_6311"/>
<feColorMatrix in="SourceAlpha" type="matrix" values="0 0 0 0 0 0 0 0 0 0 0 0 0 0 0 0 0 0 127 0" result="hardAlpha"/>
<feMorphology radius="1" operator="erode" in="SourceAlpha" result="effect2_dropShadow_1202_6311"/>
<feOffset dy="3"/>
<feGaussianBlur stdDeviation="2"/>
<feComposite in2="hardAlpha" operator="out"/>
<feColorMatrix type="matrix" values="0 0 0 0 0.164706 0 0 0 0 0.164706 0 0 0 0 0.164706 0 0 0 0.14 0"/>
<feBlend mode="normal" in2="effect1_dropShadow_1202_6311" result="effect2_dropShadow_1202_6311"/>
<feBlend mode="normal" in="SourceGraphic" in2="effect2_dropShadow_1202_6311" result="shape"/>
<feColorMatrix in="SourceAlpha" type="matrix" values="0 0 0 0 0 0 0 0 0 0 0 0 0 0 0 0 0 0 127 0" result="hardAlpha"/>
<feOffset dy="-3"/>
<feGaussianBlur stdDeviation="1.5"/>
<feComposite in2="hardAlpha" operator="arithmetic" k2="-1" k3="1"/>
<feColorMatrix type="matrix" values="0 0 0 0 0 0 0 0 0 0 0 0 0 0 0 0 0 0 0.1 0"/>
<feBlend mode="normal" in2="shape" result="effect3_innerShadow_1202_6311"/>
<feColorMatrix in="SourceAlpha" type="matrix" values="0 0 0 0 0 0 0 0 0 0 0 0 0 0 0 0 0 0 127 0" result="hardAlpha"/>
<feOffset dy="3"/>
<feGaussianBlur stdDeviation="1.5"/>
<feComposite in2="hardAlpha" operator="arithmetic" k2="-1" k3="1"/>
<feColorMatrix type="matrix" values="0 0 0 0 1 0 0 0 0 1 0 0 0 0 1 0 0 0 0.1 0"/>
<feBlend mode="normal" in2="effect3_innerShadow_1202_6311" result="effect4_innerShadow_1202_6311"/>
<feColorMatrix in="SourceAlpha" type="matrix" values="0 0 0 0 0 0 0 0 0 0 0 0 0 0 0 0 0 0 127 0" result="hardAlpha"/>
<feMorphology radius="1" operator="erode" in="SourceAlpha" result="effect5_innerShadow_1202_6311"/>
<feOffset/>
<feComposite in2="hardAlpha" operator="arithmetic" k2="-1" k3="1"/>
<feColorMatrix type="matrix" values="0 0 0 0 0 0 0 0 0 0 0 0 0 0 0 0 0 0 0.2 0"/>
<feBlend mode="normal" in2="effect4_innerShadow_1202_6311" result="effect5_innerShadow_1202_6311"/>
</filter>
<linearGradient id="paint0_linear_1202_6311" x1="27" y1="0" x2="27" y2="48" gradientUnits="userSpaceOnUse">
<stop stop-color="white" stop-opacity="0.12"/>
<stop offset="1" stop-color="white" stop-opacity="0"/>
</linearGradient>
<linearGradient id="paint1_linear_1202_6311" x1="27.9272" y1="18.8574" x2="27.9272" y2="42" gradientUnits="userSpaceOnUse">
<stop stop-color="white" stop-opacity="0.8"/>
<stop offset="1" stop-color="white" stop-opacity="0.5"/>
</linearGradient>
<linearGradient id="paint2_linear_1202_6311" x1="24.9077" y1="28.7314" x2="24.9077" y2="5.58885" gradientUnits="userSpaceOnUse">
<stop stop-color="white" stop-opacity="0.8"/>
<stop offset="1" stop-color="white" stop-opacity="0.5"/>
</linearGradient>
</defs>
</svg>
